#!OML:ASF H:\Male1\Project 1\Capture day 1\Session 1\Male1.ASF
:FULLY-SPECIFIED
:DEGREES
355
root -22.2541 14.6297 0.621217 905.241 80.4174 -894.061
lowerback 4.50605 -0.996204 0.236714
upperback 3.51133 -1.23951 -0.0321041
thorax 1.0734 -0.58143 -0.121848
lowerneck -9.43893 1.01314 5.0503
upperneck 19.1705 1.20497 -1.98251
head 7.48549 0.870895 -1.36543
rclavicle 2.50966e-014 -1.19271e-015
rhumerus -33.4019 4.37737 -92.7363
rradius 24.0176
rwrist -8.93713
rhand -29.8038 0.75848
rfingers 7.12502
rthumb -3.12797 -29.1983
lclavicle 2.50966e-014 -1.19271e-015
lhumerus -20.9378 -12.9355 89.4954
lradius 31.445
lwrist 3.65697
lhand -22.097 15.1404
lfingers 7.12502
lthumb 4.31509 45.0764
rfemur -14.471 8.95376 28.0996
rtibia 39.3819
rfoot -39.0564 -28.4861
rtoes -21.3501
lfemur -10.8244 7.1093 -23.6384
ltibia 42.5389
lfoot -38.9574 26.6367
ltoes -1.39978
356
root -22.2312 14.6265 0.630685 910.274 80.7487 -888.868
lowerback 4.57653 -0.959536 1.44898
upperback 3.50537 -1.1501 0.187857
thorax 1.00954 -0.516853 -0.577035
lowerneck -9.45791 1.06131 5.24557
upperneck 19.122 1.26984 -2.17148
head 7.47774 0.896696 -1.45386
rclavicle 7.50412e-015 -3.37934e-015
rhumerus -33.4899 4.04968 -92.751
rradius 24.4765
rwrist -10.2502
rhand -29.5177 0.210919
rfingers 7.12502
rthumb -2.85169 -29.7498
lclavicle 7.50412e-015 -3.37934e-015
lhumerus -21.1043 -13.7899 90.1684
lradius 32.9106
lwrist 2.99289
lhand -20.7801 14.2132
lfingers 7.12502
lthumb 5.58669 44.1195
rfemur -13.8876 9.09223 29.0472
rtibia 38.7203
rfoot -37.5677 -29.6692
rtoes -25.717
lfemur -11.4694 7.09751 -22.4674
ltibia 44.2968
lfoot -37.5341 26.0136
ltoes -2.35726
357
root -22.2067 14.6285 0.649189 915.189 81.6106 -883.942
lowerback 4.59594 -0.740894 2.13252
upperback 3.4451 -0.836424 0.391931
thorax 0.937439 -0.351273 -0.761488
lowerneck -9.42893 1.10979 5.37938
upperneck 19.0853 1.3509 -2.36473
head 7.4656 0.926426 -1.5321
rclavicle -3.44643e-014 1.28216e-014
rhumerus -33.6193 4.10232 -92.8589
rradius 24.8733
rwrist -11.0028
rhand -29.1718 -0.475046
rfingers 7.12502
rthumb -2.5176 -30.4399
lclavicle -3.44643e-014 1.28216e-014
lhumerus -21.3858 -13.8622 90.7439
lradius 34.3644
lwrist 1.7977
lhand -19.3397 12.8782
lfingers 7.12502
lthumb 6.97725 42.7432
rfemur -13.4719 9.93779 29.8275
rtibia 38.1388
rfoot -39.9159 -27.8628
rtoes -19.6044
lfemur -12.1644 7.48727 -21.4775
ltibia 46.0087
lfoot -36.5632 25.2033
ltoes -3.54506
358
root -22.1842 14.6342 0.667319 917.706 82.6015 -881.435
lowerback 4.64923 -0.507002 2.28894
upperback 3.43872 -0.518283 0.445913
thorax 0.90979 -0.190351 -0.805278
lowerneck -9.4443 1.17884 5.39153
upperneck 19.0411 1.4363 -2.3498
head 7.45764 0.967448 -1.52121
rclavicle -2.99419e-014 1.0635e-014
rhumerus -33.4846 4.21488 -92.9005
rradius 24.9887
rwrist -11.2786
rhand -28.3509 -1.05063
rfingers 7.12502
rthumb -1.72477 -31.0234
lclavicle -2.99419e-014 1.0635e-014
lhumerus -21.7196 -13.5972 91.2524
lradius 35.7444
lwrist 0.991478
lhand -18.5193 11.0909
lfingers 7.12502
lthumb 7.76912 40.9282
rfemur -13.1213 10.5772 30.0322
rtibia 37.676
rfoot -41.2252 -26.653
rtoes -15.4567
lfemur -12.774 7.79376 -21.0395
ltibia 47.5859
lfoot -35.2329 24.4286
ltoes -4.41848
359
root -22.1619 14.6416 0.682295 919.014 83.5863 -880.092
lowerback 4.73984 -0.304078 2.27107
upperback 3.50736 -0.245243 0.401755
thorax 0.938292 -0.0520536 -0.850729
lowerneck -9.47862 1.28354 5.50251
upperneck 18.9219 1.55163 -2.35231
head 7.43102 1.02575 -1.52949
rclavicle 1.52257e-014 -1.26725e-014
rhumerus -32.9873 4.05002 -92.7472
rradius 24.8811
rwrist -11.4484
rhand -26.7781 -1.23208
rfingers 7.12502
rthumb -0.20578 -31.2117
lclavicle 1.52257e-014 -1.26725e-014
lhumerus -22.0348 -13.2526 91.6431
lradius 37.067
lwrist 0.658444
lhand -18.1899 9.87351
lfingers 7.12502
lthumb 8.08707 39.6988
rfemur -12.8262 10.7889 29.9546
rtibia 37.3296
rfoot -40.2937 -26.7989
rtoes -17.2776
lfemur -13.3107 7.81731 -20.8667
ltibia 49.0414
lfoot -33.6986 23.8937
ltoes -6.1091
